<svg width="80" height="80" viewBox="0 0 80 80" fill="none" xmlns="http://www.w3.org/2000/svg">
<path d="M11.7587 71.327L5.47498 0.845215H74.525L68.235 71.3164L39.958 79.1558L11.7587 71.327Z" fill="#961515"/>
<g style="mix-blend-mode:exclusion">
<path d="M40.0006 73.1636L62.85 66.8286L68.2256 6.60742H40.0006V73.1636Z" fill="#DC3333"/>
</g>
<g style="mix-blend-mode:luminosity">
<path d="M40.225 73.1663L17.3756 66.8313L12 6.61011H40.225V73.1663Z" fill="#DC3333"/>
</g>
<path d="M19.9205 38.1195V35.8297C21.9764 35.8297 23.4106 35.3987 24.223 34.5371C25.0478 33.6753 25.4602 32.2349 25.4602 30.2161V24.3069C25.4602 22.6081 25.6202 21.1369 25.9404 19.8936C26.2728 18.6502 26.8082 17.6223 27.5468 16.8098C28.2856 15.9973 29.2704 15.394 30.5014 15.0001C31.7324 14.6062 33.2528 14.4092 35.0624 14.4092V18.0285C33.6344 18.0285 32.508 18.2501 31.6832 18.6933C30.8708 19.1365 30.2922 19.8259 29.9474 20.7615C29.615 21.6847 29.4488 22.8665 29.4488 24.3069V31.6933C29.4488 32.6535 29.3196 33.5275 29.061 34.3155C28.8148 35.1033 28.3532 35.7805 27.6762 36.3467C26.999 36.9129 26.0326 37.3501 24.777 37.6577C23.5336 37.9655 21.9148 38.1195 19.9205 38.1195ZM35.0624 61.6819C33.2528 61.6819 31.7324 61.4849 30.5014 61.0911C29.2704 60.6971 28.2856 60.0939 27.5468 59.2813C26.8082 58.4689 26.2728 57.4409 25.9404 56.1975C25.6202 54.9541 25.4602 53.4831 25.4602 51.7841V45.8751C25.4602 43.8561 25.0478 42.4159 24.223 41.5541C23.4106 40.6923 21.9764 40.2615 19.9205 40.2615V37.9717C21.9148 37.9717 23.5336 38.1255 24.777 38.4333C26.0326 38.7411 26.999 39.1781 27.6762 39.7445C28.3532 40.3107 28.8148 40.9877 29.061 41.7757C29.3196 42.5635 29.4488 43.4375 29.4488 44.3979V51.7841C29.4488 53.2245 29.615 54.4063 29.9474 55.3297C30.2922 56.2529 30.8708 56.9361 31.6832 57.3793C32.508 57.8349 33.6344 58.0625 35.0624 58.0625V61.6819ZM19.9205 40.2615V35.8297H24.2784V40.2615H19.9205Z" fill="white"/>
<path d="M60.0796 38.1195V35.8297C58.0236 35.8297 56.5894 35.3987 55.777 34.5371C54.9522 33.6753 54.5398 32.2349 54.5398 30.2161V24.3069C54.5398 22.6081 54.3798 21.1369 54.0596 19.8936C53.7272 18.6502 53.1918 17.6223 52.4532 16.8098C51.7144 15.9973 50.7296 15.394 49.4986 15.0001C48.2676 14.6062 46.7472 14.4092 44.9376 14.4092V18.0285C46.3656 18.0285 47.492 18.2501 48.3168 18.6933C49.1292 19.1365 49.7078 19.8259 50.0526 20.7615C50.385 21.6847 50.5512 22.8665 50.5512 24.3069V31.6933C50.5512 32.6535 50.6804 33.5275 50.939 34.3155C51.1852 35.1033 51.6468 35.7805 52.3238 36.3467C53.001 36.9129 53.9674 37.3501 55.223 37.6577C56.4664 37.9655 58.0852 38.1195 60.0796 38.1195ZM44.9376 61.6819C46.7472 61.6819 48.2676 61.4849 49.4986 61.0911C50.7296 60.6971 51.7144 60.0939 52.4532 59.2813C53.1918 58.4689 53.7272 57.4409 54.0596 56.1975C54.3798 54.9541 54.5398 53.4831 54.5398 51.7841V45.8751C54.5398 43.8561 54.9522 42.4159 55.777 41.5541C56.5894 40.6923 58.0236 40.2615 60.0796 40.2615V37.9717C58.0852 37.9717 56.4664 38.1255 55.223 38.4333C53.9674 38.7411 53.001 39.1781 52.3238 39.7445C51.6468 40.3107 51.1852 40.9877 50.939 41.7757C50.6804 42.5635 50.5512 43.4375 50.5512 44.3979V51.7841C50.5512 53.2245 50.385 54.4063 50.0526 55.3297C49.7078 56.2529 49.1292 56.9361 48.3168 57.3793C47.492 57.8349 46.3656 58.0625 44.9376 58.0625V61.6819ZM60.0796 40.2615V35.8297H55.7216V40.2615H60.0796Z" fill="white"/>
</svg>
