<svg width="32" height="32" viewBox="0 0 32 32" fill="none" xmlns="http://www.w3.org/2000/svg">
<path d="M4.7035 28.5306L2.19 0.337891H29.81L27.294 28.5264L15.9833 31.6621L4.7035 28.5306Z" fill="#961515"/>
<path d="M16.0002 29.2656L25.14 26.7316L27.2902 2.64307H16.0002V29.2656Z" fill="#DC3333"/>
<path d="M16.0002 12.8571H20.5757L20.8917 9.31639H16.0002V5.85864H24.6707L24.5877 6.78639L23.7377 16.3149H16.0002V12.8571Z" fill="white"/>
<path d="M16.0207 21.8372L16.0055 21.8417L12.1547 20.8019L11.9085 18.0442H8.43799L8.92224 23.4734L16.005 25.4392L16.0207 25.4347V21.8372Z" fill="#EBEBEB"/>
<path d="M20.2817 16.1687L19.8652 20.7992L16.0087 21.8402V25.4377L23.0972 23.4732L23.1492 22.889L23.7507 16.1687H20.2817Z" fill="white"/>
<path d="M16.012 5.85864V9.31639H7.65999L7.59074 8.53939L7.43324 6.78639L7.35049 5.85864H16.012ZM16.0002 12.8576V16.3154H12.198L12.1287 15.5384L11.971 13.7854L11.8885 12.8576H16.0002Z" fill="#EBEBEB"/>
</svg>
