<svg width="32" height="32" viewBox="0 0 32 32" fill="none" xmlns="http://www.w3.org/2000/svg">
<path d="M4.70349 28.5309L2.19 0.338135H29.81L27.294 28.5266L15.9832 31.6624L4.70349 28.5309Z" fill="#961515"/>
<g style="mix-blend-mode:exclusion">
<path d="M16.0002 29.2655L25.14 26.7315L27.2902 2.64307H16.0002V29.2655Z" fill="#DC3333"/>
</g>
<g style="mix-blend-mode:luminosity">
<path d="M16.09 29.2665L6.95023 26.7325L4.79999 2.64404H16.09V29.2665Z" fill="#DC3333"/>
</g>
<path d="M7.9682 15.2478V14.3319C8.79056 14.3319 9.36424 14.1595 9.6892 13.8148C10.0191 13.4701 10.1841 12.894 10.1841 12.0864V9.72275C10.1841 9.04323 10.2481 8.45475 10.3762 7.95743C10.5091 7.46007 10.7233 7.04891 11.0187 6.72391C11.3142 6.39891 11.7082 6.15759 12.2006 6.00003C12.693 5.84247 13.3011 5.76367 14.025 5.76367V7.21139C13.4538 7.21139 13.0032 7.30003 12.6733 7.47731C12.3483 7.65459 12.1169 7.93035 11.979 8.30459C11.846 8.67387 11.7795 9.14659 11.7795 9.72275V12.6773C11.7795 13.0614 11.7278 13.411 11.6244 13.7262C11.5259 14.0413 11.3413 14.3122 11.0705 14.5387C10.7996 14.7652 10.413 14.94 9.9108 15.0631C9.41344 15.1862 8.76592 15.2478 7.9682 15.2478ZM14.025 24.6728C13.3011 24.6728 12.693 24.594 12.2006 24.4364C11.7082 24.2788 11.3142 24.0376 11.0187 23.7125C10.7233 23.3876 10.5091 22.9764 10.3762 22.479C10.2481 21.9816 10.1841 21.3932 10.1841 20.7136V18.35C10.1841 17.5424 10.0191 16.9664 9.6892 16.6216C9.36424 16.2769 8.79056 16.1046 7.9682 16.1046V15.1887C8.76592 15.1887 9.41344 15.2502 9.9108 15.3733C10.413 15.4964 10.7996 15.6712 11.0705 15.8978C11.3413 16.1243 11.5259 16.3951 11.6244 16.7103C11.7278 17.0254 11.7795 17.375 11.7795 17.7592V20.7136C11.7795 21.2898 11.846 21.7625 11.979 22.1319C12.1169 22.5012 12.3483 22.7744 12.6733 22.9517C13.0032 23.134 13.4538 23.225 14.025 23.225V24.6728ZM7.9682 16.1046V14.3319H9.71136V16.1046H7.9682Z" fill="white"/>
<path d="M24.0318 15.2478V14.3319C23.2094 14.3319 22.6358 14.1595 22.3108 13.8148C21.9809 13.4701 21.8159 12.894 21.8159 12.0864V9.72275C21.8159 9.04323 21.7519 8.45475 21.6238 7.95743C21.4909 7.46007 21.2767 7.04891 20.9813 6.72391C20.6858 6.39891 20.2918 6.15759 19.7994 6.00003C19.307 5.84247 18.6989 5.76367 17.975 5.76367V7.21139C18.5462 7.21139 18.9968 7.30003 19.3267 7.47731C19.6517 7.65459 19.8831 7.93035 20.021 8.30459C20.154 8.67387 20.2205 9.14659 20.2205 9.72275V12.6773C20.2205 13.0614 20.2722 13.411 20.3756 13.7262C20.4741 14.0413 20.6587 14.3122 20.9295 14.5387C21.2004 14.7652 21.587 14.94 22.0892 15.0631C22.5866 15.1862 23.2341 15.2478 24.0318 15.2478ZM17.975 24.6728C18.6989 24.6728 19.307 24.594 19.7994 24.4364C20.2918 24.2788 20.6858 24.0376 20.9813 23.7125C21.2767 23.3876 21.4909 22.9764 21.6238 22.479C21.7519 21.9816 21.8159 21.3932 21.8159 20.7136V18.35C21.8159 17.5424 21.9809 16.9664 22.3108 16.6216C22.6358 16.2769 23.2094 16.1046 24.0318 16.1046V15.1887C23.2341 15.1887 22.5866 15.2502 22.0892 15.3733C21.587 15.4964 21.2004 15.6712 20.9295 15.8978C20.6587 16.1243 20.4741 16.3951 20.3756 16.7103C20.2722 17.0254 20.2205 17.375 20.2205 17.7592V20.7136C20.2205 21.2898 20.154 21.7625 20.021 22.1319C19.8831 22.5012 19.6517 22.7744 19.3267 22.9517C18.9968 23.134 18.5462 23.225 17.975 23.225V24.6728ZM24.0318 16.1046V14.3319H22.2886V16.1046H24.0318Z" fill="white"/>
</svg>
