<svg width="16" height="16" viewBox="0 0 16 16" fill="none" xmlns="http://www.w3.org/2000/svg">
<path d="M2.35172 14.2653L1.09497 0.168945H14.905L13.647 14.2632L7.9916 15.8311L2.35172 14.2653Z" fill="#961515"/>
<path d="M8.00012 14.6328L12.57 13.3658L13.6451 1.32153H8.00012V14.6328Z" fill="#DC3333"/>
<path d="M8.00012 6.42869H10.2879L10.4459 4.65832H8.00012V2.92944H12.3354L12.2939 3.39332L11.8689 8.15757H8.00012V6.42869Z" fill="white"/>
<path d="M8.01037 10.9187L8.00274 10.921L6.07737 10.4011L5.95424 9.02222H4.21899L4.46112 11.7368L8.00249 12.7197L8.01037 12.7175V10.9187Z" fill="#EBEBEB"/>
<path d="M10.1409 8.08447L9.93264 10.3997L8.00439 10.9202V12.719L11.5486 11.7367L11.5746 11.4446L11.8754 8.08447H10.1409Z" fill="white"/>
<path d="M8.00598 2.92944V4.65832H3.82998L3.79536 4.26982L3.71661 3.39332L3.67523 2.92944H8.00598ZM8.00011 6.42894V8.15782H6.09898L6.06436 7.76932L5.98548 6.89282L5.94423 6.42894H8.00011Z" fill="#EBEBEB"/>
</svg>
