<svg width="16" height="16" viewBox="0 0 16 16" fill="none" xmlns="http://www.w3.org/2000/svg">
<path d="M2.35175 14.2653L1.095 0.168945H14.905L13.647 14.2632L7.9916 15.8311L2.35175 14.2653Z" fill="#961515"/>
<g style="mix-blend-mode:exclusion">
<path d="M8.00012 14.6328L12.57 13.3658L13.6451 1.32153H8.00012V14.6328Z" fill="#DC3333"/>
</g>
<g style="mix-blend-mode:luminosity">
<path d="M8.04499 14.6333L3.47511 13.3663L2.39999 1.32202H8.04499V14.6333Z" fill="#DC3333"/>
</g>
<path d="M3.9841 7.6239V7.16594C4.39528 7.16594 4.68212 7.07974 4.8446 6.90742C5.00956 6.73506 5.09204 6.44698 5.09204 6.04322V4.86138C5.09204 4.52162 5.12404 4.22738 5.18808 3.97872C5.25456 3.73004 5.36164 3.52446 5.50936 3.36196C5.65712 3.19946 5.85408 3.0788 6.10028 3.00002C6.34648 2.92124 6.65056 2.88184 7.01248 2.88184V3.6057C6.72688 3.6057 6.5016 3.65002 6.33664 3.73866C6.17416 3.8273 6.05844 3.96518 5.98948 4.1523C5.923 4.33694 5.88976 4.5733 5.88976 4.86138V6.33866C5.88976 6.5307 5.86392 6.7055 5.8122 6.8631C5.76296 7.02066 5.67064 7.1561 5.53524 7.26934C5.3998 7.38258 5.20652 7.47002 4.9554 7.53154C4.70672 7.5931 4.38296 7.6239 3.9841 7.6239ZM7.01248 12.3364C6.65056 12.3364 6.34648 12.297 6.10028 12.2182C5.85408 12.1394 5.65712 12.0188 5.50936 11.8563C5.36164 11.6938 5.25456 11.4882 5.18808 11.2395C5.12404 10.9908 5.09204 10.6966 5.09204 10.3568V9.17502C5.09204 8.77122 5.00956 8.48318 4.8446 8.31082C4.68212 8.13846 4.39528 8.0523 3.9841 8.0523V7.59434C4.38296 7.59434 4.70672 7.6251 4.9554 7.68666C5.20652 7.74822 5.3998 7.83562 5.53524 7.9489C5.67064 8.06214 5.76296 8.19754 5.8122 8.35514C5.86392 8.5127 5.88976 8.6875 5.88976 8.87958V10.3568C5.88976 10.6449 5.923 10.8813 5.98948 11.0659C6.05844 11.2506 6.17416 11.3872 6.33664 11.4759C6.5016 11.567 6.72688 11.6125 7.01248 11.6125V12.3364ZM3.9841 8.0523V7.16594H4.85568V8.0523H3.9841Z" fill="white"/>
<path d="M12.0159 7.6239V7.16594C11.6047 7.16594 11.3179 7.07974 11.1554 6.90742C10.9904 6.73506 10.908 6.44698 10.908 6.04322V4.86138C10.908 4.52162 10.876 4.22738 10.8119 3.97872C10.7454 3.73004 10.6384 3.52446 10.4906 3.36196C10.3429 3.19946 10.1459 3.0788 9.89972 3.00002C9.65352 2.92124 9.34944 2.88184 8.98752 2.88184V3.6057C9.27312 3.6057 9.4984 3.65002 9.66336 3.73866C9.82584 3.8273 9.94156 3.96518 10.0105 4.1523C10.077 4.33694 10.1102 4.5733 10.1102 4.86138V6.33866C10.1102 6.5307 10.1361 6.7055 10.1878 6.8631C10.237 7.02066 10.3294 7.1561 10.4648 7.26934C10.6002 7.38258 10.7935 7.47002 11.0446 7.53154C11.2933 7.5931 11.617 7.6239 12.0159 7.6239ZM8.98752 12.3364C9.34944 12.3364 9.65352 12.297 9.89972 12.2182C10.1459 12.1394 10.3429 12.0188 10.4906 11.8563C10.6384 11.6938 10.7454 11.4882 10.8119 11.2395C10.876 10.9908 10.908 10.6966 10.908 10.3568V9.17502C10.908 8.77122 10.9904 8.48318 11.1554 8.31082C11.3179 8.13846 11.6047 8.0523 12.0159 8.0523V7.59434C11.617 7.59434 11.2933 7.6251 11.0446 7.68666C10.7935 7.74822 10.6002 7.83562 10.4648 7.9489C10.3294 8.06214 10.237 8.19754 10.1878 8.35514C10.1361 8.5127 10.1102 8.6875 10.1102 8.87958V10.3568C10.1102 10.6449 10.077 10.8813 10.0105 11.0659C9.94156 11.2506 9.82584 11.3872 9.66336 11.4759C9.4984 11.567 9.27312 11.6125 8.98752 11.6125V12.3364ZM12.0159 8.0523V7.16594H11.1443V8.0523H12.0159Z" fill="white"/>
</svg>
