<svg width="40" height="40" viewBox="0 0 40 40" fill="none" xmlns="http://www.w3.org/2000/svg">
<path d="M5.87935 35.6635L2.73749 0.422607H37.2625L34.1175 35.6582L19.979 39.5779L5.87935 35.6635Z" fill="#961515"/>
<g style="mix-blend-mode:exclusion">
<path d="M20.0003 36.5818L31.425 33.4143L34.1128 3.30371H20.0003V36.5818Z" fill="#DC3333"/>
</g>
<g style="mix-blend-mode:luminosity">
<path d="M20.1125 36.5833L8.6878 33.4158L6 3.30518H20.1125V36.5833Z" fill="#DC3333"/>
</g>
<path d="M9.96025 19.0597V17.9148C10.9882 17.9148 11.7053 17.6993 12.1115 17.2685C12.5239 16.8376 12.7301 16.1174 12.7301 15.108V12.1534C12.7301 11.304 12.8101 10.5684 12.9702 9.94679C13.1364 9.32509 13.4041 8.81114 13.7734 8.40489C14.1428 7.99864 14.6352 7.69699 15.2507 7.50004C15.8662 7.30309 16.6264 7.20459 17.5312 7.20459V9.01424C16.8172 9.01424 16.254 9.12504 15.8416 9.34664C15.4354 9.56824 15.1461 9.91294 14.9737 10.3807C14.8075 10.8423 14.7244 11.4332 14.7244 12.1534V15.8466C14.7244 16.3267 14.6598 16.7637 14.5305 17.1577C14.4074 17.5516 14.1766 17.8902 13.8381 18.1733C13.4995 18.4564 13.0163 18.675 12.3885 18.8288C11.7668 18.9827 10.9574 19.0597 9.96025 19.0597ZM17.5312 30.8409C16.6264 30.8409 15.8662 30.7424 15.2507 30.5455C14.6352 30.3485 14.1428 30.0469 13.7734 29.6406C13.4041 29.2344 13.1364 28.7204 12.9702 28.0987C12.8101 27.477 12.7301 26.7415 12.7301 25.892V22.9375C12.7301 21.928 12.5239 21.2079 12.1115 20.777C11.7053 20.3461 10.9882 20.1307 9.96025 20.1307V18.9858C10.9574 18.9858 11.7668 19.0627 12.3885 19.2166C13.0163 19.3705 13.4995 19.589 13.8381 19.8722C14.1766 20.1553 14.4074 20.4938 14.5305 20.8878C14.6598 21.2817 14.7244 21.7187 14.7244 22.1989V25.892C14.7244 26.6122 14.8075 27.2031 14.9737 27.6648C15.1461 28.1264 15.4354 28.468 15.8416 28.6896C16.254 28.9174 16.8172 29.0312 17.5312 29.0312V30.8409ZM9.96025 20.1307V17.9148H12.1392V20.1307H9.96025Z" fill="white"/>
<path d="M30.0398 19.0597V17.9148C29.0118 17.9148 28.2947 17.6993 27.8885 17.2685C27.4761 16.8376 27.2699 16.1174 27.2699 15.108V12.1534C27.2699 11.304 27.1899 10.5684 27.0298 9.94679C26.8636 9.32509 26.5959 8.81114 26.2266 8.40489C25.8572 7.99864 25.3648 7.69699 24.7493 7.50004C24.1338 7.30309 23.3736 7.20459 22.4688 7.20459V9.01424C23.1828 9.01424 23.746 9.12504 24.1584 9.34664C24.5646 9.56824 24.8539 9.91294 25.0263 10.3807C25.1925 10.8423 25.2756 11.4332 25.2756 12.1534V15.8466C25.2756 16.3267 25.3402 16.7637 25.4695 17.1577C25.5926 17.5516 25.8234 17.8902 26.1619 18.1733C26.5005 18.4564 26.9837 18.675 27.6115 18.8288C28.2332 18.9827 29.0426 19.0597 30.0398 19.0597ZM22.4688 30.8409C23.3736 30.8409 24.1338 30.7424 24.7493 30.5455C25.3648 30.3485 25.8572 30.0469 26.2266 29.6406C26.5959 29.2344 26.8636 28.7204 27.0298 28.0987C27.1899 27.477 27.2699 26.7415 27.2699 25.892V22.9375C27.2699 21.928 27.4761 21.2079 27.8885 20.777C28.2947 20.3461 29.0118 20.1307 30.0398 20.1307V18.9858C29.0426 18.9858 28.2332 19.0627 27.6115 19.2166C26.9837 19.3705 26.5005 19.589 26.1619 19.8722C25.8234 20.1553 25.5926 20.4938 25.4695 20.8878C25.3402 21.2817 25.2756 21.7187 25.2756 22.1989V25.892C25.2756 26.6122 25.1925 27.2031 25.0263 27.6648C24.8539 28.1264 24.5646 28.468 24.1584 28.6896C23.746 28.9174 23.1828 29.0312 22.4688 29.0312V30.8409ZM30.0398 20.1307V17.9148H27.8608V20.1307H30.0398Z" fill="white"/>
</svg>
